<?xml version="1.0" encoding="UTF-8" standalone="no"?>
<svg 
  version="1.1" 
  xmlns="http://www.w3.org/2000/svg" 
  xmlns:xlink="http://www.w3.org/1999/xlink" 
  xmlns:svg="http://www.w3.org/2000/svg"
  xmlns:rdf="http://www.w3.org/1999/02/22-rdf-syntax-ns#"
  xmlns:cc="http://creativecommons.org/ns#"
  xmlns:dc="http://purl.org/dc/elements/1.1/"
  viewBox="0 0 768 768"
  width="768"
  height="768"
>
<style>svg {background-color: white; }</style>"
<metadata id="metadata1">
Created by https://svgstud.io and licensed under CC-BY-SA 4.0 license. Please attribute https://svgstud.io
</metadata>
<metadata id="prompt">
simple cartoon penguin
</metadata>
<metadata id="version">
7
</metadata>
<metadata id="metadata2">
<rdf:RDF>
<cc:Work
    rdf:about="">
    <cc:license
    rdf:resource="http://creativecommons.org/licenses/by-sa/4.0/" />
    <dc:creator>
        <cc:Agent>
            <dc:title>https://svgstud.io</dc:title>
        </cc:Agent>
    </dc:creator>
</cc:Work>
<cc:License
    rdf:about="http://creativecommons.org/licenses/by-sa/4.0/">
    <cc:permits
    rdf:resource="http://creativecommons.org/ns#Reproduction" />
    <cc:permits
    rdf:resource="http://creativecommons.org/ns#Distribution" />
    <cc:requires
    rdf:resource="http://creativecommons.org/ns#Notice" />
    <cc:requires
    rdf:resource="http://creativecommons.org/ns#Attribution" />
    <cc:permits
    rdf:resource="http://creativecommons.org/ns#DerivativeWorks" />
    <cc:requires
    rdf:resource="http://creativecommons.org/ns#ShareAlike" />
</cc:License>
</rdf:RDF>
</metadata>
<metadata id="uid">
8f863d73bd4839e0495f5707f42eb3b6eb9d601afc525c52119df31536a903a8
</metadata>
<path stroke="none" fill="black" fill-rule="evenodd" d="M391.70,680.85C384.44,680.77 377.15,680.52 375.50,680.31C373.85,680.09 368.45,679.25 363.50,678.44C358.55,677.62 351.66,676.02 348.18,674.87C344.19,673.56 340.45,671.44 338.02,669.14C334.89,666.16 333.94,664.31 332.89,659.24C331.80,653.95 331.28,653.00 329.47,653.00C328.30,653.00 322.43,653.71 316.42,654.58C310.04,655.50 298.85,656.14 289.50,656.14C280.02,656.13 269.02,655.46 262.50,654.50C256.45,653.61 248.04,652.03 243.82,650.99C239.59,649.95 233.89,647.97 231.16,646.58C228.42,645.19 225.30,642.81 224.23,641.28C223.15,639.75 221.71,636.74 221.01,634.59C220.20,632.09 219.94,628.03 220.29,623.37C220.69,618.00 221.58,614.70 223.64,610.93C225.17,608.10 228.30,604.15 230.58,602.14C232.87,600.14 237.83,596.77 241.62,594.66C245.40,592.55 251.84,589.49 255.91,587.86C259.99,586.22 268.77,583.56 275.41,581.93C282.06,580.31 290.65,578.70 294.50,578.35C298.35,578.01 302.06,577.28 302.75,576.74C303.52,576.13 303.97,573.41 303.93,569.63C303.89,566.26 303.55,562.75 303.18,561.84C302.81,560.93 299.80,558.17 296.50,555.71C293.20,553.25 287.54,548.14 283.92,544.37C280.31,540.59 275.48,535.20 273.21,532.40C269.06,527.30 269.06,527.30 258.54,526.62C252.75,526.24 245.17,525.06 241.71,523.99C238.05,522.86 233.72,520.59 231.36,518.58C229.12,516.66 225.70,512.05 223.74,508.30C221.79,504.56 219.66,499.52 219.02,497.11C218.37,494.69 217.48,488.17 217.04,482.61C216.60,477.05 216.63,466.74 217.12,459.71C217.60,452.68 219.18,441.65 220.62,435.21C222.06,428.77 224.49,419.80 226.03,415.28C227.56,410.76 231.17,402.95 234.04,397.93C236.92,392.90 242.00,385.35 245.34,381.15C248.68,376.94 254.47,370.51 258.21,366.87C261.94,363.22 265.00,359.81 265.00,359.30C265.00,358.79 262.19,357.05 258.75,355.45C255.31,353.84 249.67,350.09 246.21,347.11C242.76,344.13 237.64,338.82 234.86,335.32C232.07,331.82 227.64,325.35 225.03,320.94C222.41,316.54 218.79,308.57 216.98,303.22C214.44,295.74 213.84,292.64 214.38,289.79C214.76,287.76 216.71,283.71 218.71,280.80C222.35,275.50 222.35,275.50 222.49,247.00C222.61,222.58 222.93,216.85 224.76,207.00C225.93,200.68 228.52,190.81 230.52,185.08C232.52,179.34 235.75,171.48 237.70,167.61C239.65,163.73 243.23,157.54 245.67,153.85C248.10,150.16 253.38,143.38 257.40,138.78C261.42,134.18 268.27,127.45 272.61,123.84C276.95,120.22 283.84,115.11 287.92,112.48C292.00,109.84 300.25,105.49 306.26,102.79C312.28,100.10 321.31,96.82 326.35,95.49C331.38,94.16 339.31,92.61 343.97,92.04C348.63,91.47 355.83,91.01 359.97,91.03C364.11,91.05 370.81,91.49 374.84,92.02C380.11,92.70 382.80,92.64 384.34,91.82C385.53,91.19 388.75,88.98 391.50,86.91C394.25,84.83 398.98,81.99 402.00,80.59C405.02,79.18 409.88,77.50 412.80,76.85C417.35,75.83 418.31,75.88 419.67,77.24C420.54,78.11 421.76,81.67 422.39,85.16C423.51,91.34 423.62,91.50 426.52,91.31C428.16,91.21 431.84,90.98 434.70,90.81C437.77,90.63 440.38,90.98 441.08,91.68C441.74,92.34 442.21,95.24 442.14,98.18C442.07,101.11 441.12,106.60 440.03,110.40C438.06,117.30 438.06,117.30 449.85,128.90C456.34,135.28 463.96,143.93 466.79,148.11C469.62,152.30 473.92,159.73 476.36,164.61C478.80,169.50 481.94,176.88 483.34,181.01C484.74,185.14 487.03,194.14 488.41,201.01C489.80,207.88 491.40,218.45 491.96,224.50C492.53,230.55 492.99,240.68 492.99,247.00C492.98,253.32 492.52,263.90 491.95,270.50C491.39,277.10 490.24,286.55 489.41,291.50C488.57,296.45 486.73,305.78 485.31,312.23C483.07,322.39 482.91,324.21 484.11,325.86C484.88,326.91 489.48,332.43 494.34,338.13C499.20,343.83 505.83,352.51 509.08,357.41C512.32,362.31 517.25,370.74 520.03,376.15C522.81,381.56 526.69,390.38 528.65,395.75C530.61,401.11 533.08,408.43 534.13,412.00C535.18,415.57 537.20,423.90 538.62,430.50C540.84,440.86 541.25,445.71 541.67,466.00C542.02,483.41 541.76,492.34 540.67,500.44C539.19,511.39 539.19,511.39 541.56,514.49C542.86,516.19 545.13,520.23 546.61,523.46C548.70,528.03 549.40,531.36 549.78,538.58C550.20,546.68 549.99,548.39 548.05,552.39C546.21,556.21 544.84,557.45 539.67,559.99C536.00,561.80 529.25,563.83 523.00,565.02C517.23,566.12 507.32,567.35 501.00,567.76C489.50,568.50 489.50,568.50 489.22,579.10C489.06,584.93 489.37,590.85 489.91,592.26C490.80,594.61 491.51,594.87 498.69,595.47C502.99,595.83 510.10,596.56 514.50,597.10C518.90,597.63 527.06,598.95 532.62,600.03C538.19,601.11 546.74,603.14 551.62,604.54C556.51,605.95 563.35,608.42 566.84,610.04C570.32,611.65 574.49,614.38 576.09,616.09C578.40,618.57 579.00,620.13 579.00,623.66C579.00,626.10 578.37,629.31 577.60,630.80C576.82,632.28 575.13,634.48 573.85,635.68C572.56,636.88 568.80,639.19 565.50,640.82C562.20,642.44 554.55,645.36 548.50,647.29C542.45,649.23 532.77,651.96 527.00,653.36C521.23,654.77 507.49,657.69 496.48,659.86C485.46,662.04 470.16,665.86 462.48,668.37C454.79,670.87 444.00,674.05 438.50,675.42C433.00,676.80 423.19,678.62 416.70,679.46C410.21,680.31 398.96,680.93 391.70,680.85zM396.67,666.83C401.82,666.57 404.39,666.00 405.03,664.98C405.55,664.17 405.99,661.48 406.01,659.00C406.03,656.52 406.96,652.49 408.07,650.03C409.19,647.57 411.20,644.12 412.53,642.37C413.87,640.61 418.01,637.16 421.73,634.69C425.46,632.23 430.26,629.48 432.42,628.58C436.34,626.96 436.34,626.96 430.63,632.95C427.48,636.25 423.99,641.02 422.87,643.55C421.73,646.13 420.58,651.47 420.27,655.66C419.70,663.15 419.70,663.15 423.60,662.44C425.75,662.05 436.05,658.91 446.50,655.46C456.95,652.00 469.55,647.45 474.50,645.34C479.45,643.23 484.40,640.97 485.50,640.32C487.29,639.27 487.53,637.89 487.83,627.26C488.11,617.09 487.92,615.18 486.48,613.98C485.53,613.20 481.46,612.35 477.19,612.04C470.13,611.54 469.53,611.32 468.89,609.00C468.51,607.62 468.15,601.73 468.10,595.90C468.04,590.06 467.71,582.47 467.34,579.03C466.69,572.76 466.69,572.76 462.09,573.32C459.57,573.63 455.18,574.38 452.35,575.00C448.41,575.86 447.06,576.64 446.61,578.31C446.29,579.52 446.02,586.94 446.01,594.82C446.00,607.98 445.86,609.09 444.25,608.60C443.29,608.31 440.48,607.58 438.00,606.98C435.52,606.38 425.84,605.63 416.48,605.31C401.23,604.80 398.59,604.96 390.98,606.88C386.32,608.06 379.07,610.76 374.88,612.89C370.68,615.01 364.67,618.66 361.51,621.00C358.34,623.33 354.03,626.97 351.92,629.08C349.81,631.19 347.13,634.79 345.95,637.09C344.65,639.65 343.62,644.01 343.29,648.38C342.84,654.39 343.05,655.84 344.63,657.69C345.66,658.89 347.40,659.96 348.50,660.05C349.60,660.15 351.06,660.18 351.75,660.12C352.44,660.05 353.00,659.12 353.00,658.05C353.00,656.98 353.51,653.72 354.13,650.82C354.92,647.14 356.26,644.54 358.53,642.27C360.33,640.47 362.48,639.00 363.32,639.00C364.60,639.00 364.81,640.85 364.67,650.94C364.56,658.89 364.89,663.28 365.66,664.06C366.30,664.70 368.88,665.46 371.39,665.74C375.63,666.22 376.02,666.06 376.98,663.56C377.54,662.08 378.00,659.19 378.00,657.13C378.00,655.08 379.17,651.04 380.60,648.17C382.16,645.03 384.35,642.36 386.05,641.47C387.62,640.66 389.20,640.00 389.56,640.00C389.92,640.00 389.99,641.46 389.72,643.25C389.44,645.04 388.70,649.38 388.06,652.90C387.43,656.42 387.21,660.70 387.57,662.40C387.94,664.11 388.46,665.88 388.74,666.35C389.02,666.82 392.59,667.04 396.67,666.83zM267.14,643.00C270.23,643.00 272.19,642.53 272.41,641.75C272.60,641.06 273.23,637.38 273.82,633.57C274.40,629.75 275.74,625.48 276.80,624.07C277.85,622.65 279.49,621.35 280.43,621.16C281.38,620.98 284.15,621.41 286.60,622.14C289.93,623.12 290.88,623.83 290.41,624.97C290.06,625.81 289.56,629.42 289.30,633.00C288.96,637.69 289.22,640.03 290.25,641.39C291.63,643.22 291.96,643.23 300.59,641.60C305.49,640.67 313.10,639.25 317.50,638.43C321.90,637.62 327.30,636.27 329.50,635.43C332.38,634.33 334.64,632.30 337.58,628.17C339.89,624.93 345.85,619.07 351.33,614.66C361.00,606.88 361.00,606.88 360.98,595.19C360.98,588.76 360.62,582.95 360.19,582.28C359.76,581.60 356.28,580.60 352.46,580.04C348.63,579.49 344.94,579.03 344.25,579.02C343.34,579.01 343.00,581.51 342.98,588.25C342.98,593.34 342.54,598.17 342.01,599.00C341.27,600.16 340.66,600.25 339.28,599.39C338.30,598.78 337.19,596.53 336.81,594.39C336.43,592.25 336.09,586.82 336.06,582.32C336.01,576.18 335.60,573.74 334.38,572.53C333.50,571.64 330.13,569.58 326.91,567.96C323.69,566.33 320.59,565.00 320.03,565.00C319.38,565.00 319.00,569.64 319.00,577.61C319.00,589.21 318.86,590.16 317.25,589.54C316.29,589.16 313.04,588.21 310.04,587.43C307.04,586.64 303.40,586.00 301.97,586.00C300.53,586.00 295.11,586.73 289.93,587.61C284.74,588.50 276.68,590.32 272.00,591.65C267.32,592.99 259.00,596.28 253.50,598.96C248.00,601.64 241.58,605.49 239.22,607.51C236.87,609.54 234.26,612.54 233.41,614.17C232.40,616.13 231.88,619.87 231.90,625.16C231.90,629.61 232.41,633.79 233.04,634.54C233.65,635.29 235.74,636.42 237.67,637.06C239.61,637.70 241.54,637.83 241.98,637.36C242.42,636.89 242.97,633.80 243.20,630.50C243.44,627.20 244.44,622.81 245.43,620.75C246.96,617.56 247.70,617.01 250.36,617.07C252.09,617.11 254.40,617.49 255.50,617.92C257.32,618.63 257.50,619.63 257.50,628.94C257.50,638.49 257.66,639.30 259.86,641.09C261.47,642.39 263.79,643.00 267.14,643.00zM414.00,597.00C424.08,597.00 424.08,597.00 423.79,588.75C423.50,580.50 423.50,580.50 414.00,580.50C404.50,580.50 404.50,580.50 404.21,588.75C403.92,597.00 403.92,597.00 414.00,597.00zM390.00,570.84C390.82,570.91 398.25,570.52 406.50,569.96C414.75,569.41 425.55,568.26 430.50,567.42C435.45,566.57 443.10,564.99 447.50,563.90C451.90,562.81 459.01,560.76 463.30,559.36C467.58,557.95 474.63,555.08 478.95,552.97C483.27,550.85 487.10,548.65 487.46,548.07C487.82,547.48 486.86,546.51 485.31,545.89C483.76,545.27 478.34,542.78 473.26,540.35C468.18,537.91 460.43,533.22 456.05,529.92C451.66,526.61 444.08,519.94 439.20,515.09C434.31,510.24 426.47,501.14 421.77,494.88C417.07,488.62 410.67,479.45 407.54,474.50C404.42,469.55 399.87,461.38 397.44,456.35C395.00,451.32 391.46,443.15 389.57,438.19C387.68,433.24 383.15,418.45 379.49,405.34C375.84,392.23 371.50,377.00 369.84,371.50C368.18,366.00 366.49,361.15 366.08,360.72C365.68,360.29 360.88,360.70 355.42,361.62C348.33,362.82 339.07,363.33 323.00,363.40C310.62,363.46 295.97,363.13 290.44,362.68C280.37,361.87 280.37,361.87 275.72,376.18C273.17,384.06 269.95,395.23 268.58,401.00C267.21,406.77 265.43,416.23 264.63,422.00C263.82,427.77 262.88,437.45 262.53,443.50C262.18,449.55 262.38,459.68 262.97,466.00C263.57,472.32 265.17,481.77 266.53,487.00C267.90,492.23 270.79,500.10 272.97,504.50C275.15,508.90 279.16,515.44 281.89,519.03C284.61,522.62 290.61,529.19 295.23,533.63C299.85,538.06 307.16,544.07 311.48,546.99C315.80,549.90 322.97,553.99 327.42,556.07C331.86,558.16 339.10,561.04 343.50,562.49C347.90,563.94 355.30,566.03 359.94,567.14C364.58,568.25 372.90,569.51 378.44,569.94C383.97,570.37 389.18,570.77 390.00,570.84zM481.78,517.00C482.87,517.00 482.64,516.24 480.88,514.09C479.57,512.49 475.97,508.10 472.87,504.34C469.78,500.58 464.30,493.10 460.70,487.73C457.10,482.35 451.89,473.35 449.12,467.73C446.36,462.10 442.47,452.77 440.47,447.00C438.48,441.23 436.21,433.20 435.42,429.16C434.64,425.13 434.00,418.60 434.00,414.66C434.00,409.85 434.58,406.35 435.75,404.00C436.83,401.84 438.35,400.38 439.74,400.18C441.32,399.96 443.63,401.43 447.62,405.18C450.73,408.11 456.56,415.14 460.59,420.81C464.62,426.48 470.02,434.70 472.60,439.06C475.18,443.43 477.64,447.00 478.07,447.00C478.50,447.00 479.35,444.41 479.94,441.25C480.54,438.09 481.91,431.71 482.99,427.07C484.07,422.43 485.37,418.23 485.88,417.72C486.43,417.17 488.36,419.11 490.76,422.65C492.94,425.87 495.86,430.75 497.24,433.50C498.63,436.25 500.90,442.10 502.29,446.50C503.67,450.90 505.75,460.12 506.90,467.00C508.05,473.88 509.40,486.17 509.91,494.33C510.41,502.48 511.05,509.38 511.33,509.67C511.62,509.95 512.22,508.00 512.67,505.34C513.13,502.68 513.46,493.98 513.42,486.00C513.36,475.91 512.68,467.73 511.16,459.09C509.97,452.27 507.68,443.04 506.07,438.59C504.47,434.14 502.00,427.35 500.58,423.50C499.17,419.65 498.02,415.15 498.04,413.50C498.06,410.66 498.14,410.60 499.52,412.43C500.92,414.27 501.03,414.22 502.09,411.18C502.70,409.43 503.62,408.00 504.14,408.00C504.66,408.00 506.20,409.10 507.55,410.45C508.90,411.80 510.00,412.50 510.00,412.00C510.00,411.51 509.32,408.49 508.49,405.30C507.66,402.11 505.38,396.12 503.43,392.00C501.48,387.88 497.79,381.12 495.23,377.00C492.68,372.88 488.11,366.12 485.08,362.00C482.05,357.88 477.78,352.56 475.59,350.18C473.41,347.81 470.76,345.40 469.69,344.84C468.16,344.02 467.93,344.08 468.56,345.15C469.00,345.89 471.91,350.32 475.04,355.00C478.16,359.68 481.90,365.85 483.36,368.72C485.49,372.93 485.98,375.24 485.90,380.72C485.85,384.45 485.49,388.62 485.11,390.00C484.72,391.38 483.86,392.50 483.19,392.50C482.51,392.50 476.01,385.73 468.73,377.45C461.45,369.18 452.42,359.61 448.65,356.20C444.88,352.79 441.20,350.00 440.48,350.00C439.75,350.00 436.84,352.59 434.00,355.75C431.15,358.91 426.40,365.61 423.42,370.64C420.39,375.76 417.30,382.57 416.38,386.14C415.11,391.06 414.87,395.22 415.30,404.50C415.70,413.26 416.70,419.84 419.00,428.85C420.73,435.64 423.91,445.51 426.06,450.77C428.21,456.03 431.84,463.62 434.13,467.62C436.42,471.62 441.24,478.81 444.83,483.59C448.41,488.38 454.54,495.51 458.43,499.45C462.32,503.39 468.83,508.95 472.91,511.80C476.98,514.66 480.98,517.00 481.78,517.00zM243.65,499.69C243.92,499.41 243.23,493.63 242.11,486.85C240.99,480.06 239.78,471.35 239.43,467.50C239.08,463.65 239.30,456.23 239.92,451.00C240.54,445.77 242.01,438.12 243.20,434.00C244.38,429.88 248.46,419.07 252.26,410.00C256.06,400.93 260.59,389.60 262.33,384.82C264.06,380.05 265.14,375.80 264.72,375.39C264.30,374.97 261.89,376.62 259.36,379.06C256.83,381.50 252.11,386.80 248.87,390.82C245.63,394.85 241.16,401.97 238.94,406.63C236.71,411.30 233.97,418.57 232.85,422.81C231.45,428.10 230.64,435.07 230.27,445.13C229.94,454.31 230.19,462.88 230.96,468.11C231.63,472.70 233.26,479.88 234.58,484.07C235.90,488.25 238.37,493.59 240.07,495.93C241.76,498.27 243.37,499.96 243.65,499.69zM290.85,412.00C288.85,412.00 288.77,411.63 289.24,404.25C289.52,399.99 290.27,395.19 290.91,393.59C291.82,391.30 292.34,390.94 293.29,391.89C294.00,392.60 294.50,395.88 294.50,399.80C294.50,403.49 294.15,407.74 293.73,409.25C293.20,411.14 292.30,412.00 290.85,412.00zM321.00,352.85C325.68,352.92 334.68,352.53 341.00,351.98C347.32,351.43 356.77,350.26 362.00,349.39C367.23,348.51 376.68,346.50 383.00,344.91C389.32,343.32 395.69,341.53 397.14,340.93C399.25,340.07 400.45,338.08 403.02,331.17C404.80,326.40 408.01,317.60 410.15,311.61C412.30,305.63 415.42,294.15 417.08,286.11C419.51,274.33 420.21,268.02 420.68,253.50C421.13,239.47 420.89,233.01 419.59,224.24C418.68,218.04 416.99,209.94 415.85,206.24C414.71,202.53 412.51,197.00 410.97,193.94C409.43,190.89 406.12,185.88 403.62,182.81C401.12,179.74 396.24,175.09 392.79,172.47C389.33,169.86 382.00,165.54 376.50,162.89C371.00,160.23 362.68,157.03 358.00,155.78C350.55,153.78 347.13,153.50 330.25,153.50C319.66,153.50 311.00,153.37 311.00,153.20C311.00,153.04 311.63,151.69 312.40,150.20C313.18,148.72 317.11,144.33 321.15,140.46C325.19,136.59 330.80,131.76 333.61,129.73C336.41,127.70 341.36,124.74 344.61,123.14C347.85,121.55 353.45,119.52 357.06,118.62C360.67,117.73 367.65,117.00 372.56,117.01C377.92,117.01 384.72,117.79 389.56,118.95C393.99,120.01 399.95,121.80 402.79,122.92C405.64,124.04 410.98,126.79 414.66,129.03C418.35,131.27 424.26,135.44 427.80,138.30C431.34,141.16 436.54,146.28 439.37,149.67C442.19,153.06 446.41,159.02 448.74,162.92C451.07,166.81 454.13,172.81 455.53,176.25C456.93,179.69 458.93,185.88 459.99,190.00C461.04,194.12 462.36,200.45 462.94,204.04C463.51,207.64 464.68,218.66 465.54,228.52C466.41,238.38 467.31,246.65 467.56,246.89C467.80,247.13 468.32,247.02 468.71,246.63C469.09,246.24 469.60,240.39 469.82,233.62C470.05,226.86 469.70,217.37 469.06,212.54C468.42,207.71 466.36,197.66 464.48,190.19C462.04,180.51 459.48,173.41 455.55,165.38C452.47,159.10 446.77,149.81 442.62,144.32C438.55,138.92 431.90,131.30 427.86,127.39C423.81,123.49 418.02,118.71 415.00,116.78C411.98,114.85 406.57,111.80 403.00,109.99C399.43,108.19 393.45,105.68 389.72,104.41C386.00,103.14 379.28,101.57 374.80,100.91C369.90,100.19 362.59,99.97 356.48,100.34C350.89,100.68 343.20,101.62 339.41,102.43C335.61,103.24 329.35,104.99 325.50,106.32C321.65,107.65 315.57,110.07 312.00,111.71C308.43,113.35 301.79,117.46 297.25,120.84C292.71,124.23 289.00,127.27 289.00,127.62C289.00,127.97 290.35,127.98 292.00,127.65C293.65,127.32 295.00,127.44 295.00,127.91C295.00,128.39 296.37,128.97 298.04,129.22C299.72,129.47 301.31,129.31 301.57,128.88C301.84,128.45 303.43,127.12 305.11,125.92C308.16,123.75 308.16,123.75 305.73,128.62C304.39,131.31 302.28,137.78 301.05,143.00C299.81,148.22 298.47,152.86 298.06,153.29C297.65,153.73 296.68,153.33 295.91,152.41C295.13,151.49 292.42,146.20 289.87,140.66C287.32,135.11 284.81,130.44 284.30,130.27C283.78,130.09 279.97,132.85 275.82,136.39C271.67,139.93 265.66,145.90 262.46,149.66C259.27,153.42 254.67,159.56 252.25,163.29C249.83,167.03 246.28,173.52 244.37,177.72C242.45,181.92 239.79,189.15 238.44,193.79C237.10,198.43 236.00,203.98 236.00,206.14C236.00,209.71 236.27,210.10 239.09,210.67C241.24,211.10 243.23,212.71 245.57,215.89C247.43,218.43 249.85,223.20 250.95,226.50C252.06,229.80 253.22,235.20 253.54,238.50C253.86,241.80 254.32,245.45 254.55,246.61C254.94,248.58 255.82,248.76 267.88,249.42C274.99,249.80 285.08,250.72 290.32,251.45C295.55,252.18 300.32,253.08 300.92,253.45C301.64,253.90 302.00,261.25 302.00,275.59C302.00,291.86 301.66,297.89 300.58,300.46C299.80,302.32 297.28,306.25 294.97,309.18C292.67,312.10 288.06,317.55 284.72,321.29C281.39,325.02 276.47,329.69 273.79,331.66C269.72,334.64 267.83,335.32 262.45,335.76C258.14,336.10 256.00,336.70 256.00,337.56C256.00,338.26 257.46,339.74 259.25,340.84C261.04,341.94 264.85,343.77 267.73,344.90C270.60,346.03 277.58,347.90 283.23,349.05C288.88,350.20 297.77,351.50 303.00,351.93C308.23,352.37 316.32,352.78 321.00,352.85zM240.07,322.00C241.13,322.00 242.00,321.41 242.00,320.70C242.00,319.98 240.20,315.67 238.00,311.12C235.80,306.57 234.00,302.21 234.00,301.43C234.00,300.64 234.51,300.00 235.13,300.00C235.76,300.00 237.96,300.51 240.03,301.13C243.08,302.04 244.20,301.98 245.89,300.79C247.04,299.98 250.98,295.76 254.64,291.41C258.29,287.06 263.81,280.87 266.89,277.65C269.98,274.44 275.99,269.13 280.25,265.86C284.51,262.59 288.00,259.51 288.00,259.02C288.00,258.53 287.21,257.90 286.25,257.62C285.29,257.34 280.98,256.63 276.68,256.05C272.38,255.47 266.22,255.00 262.99,255.00C259.77,255.00 256.00,255.43 254.61,255.96C253.23,256.48 248.68,260.16 244.50,264.13C240.31,268.11 233.81,275.22 230.04,279.94C226.28,284.67 223.06,289.20 222.89,290.02C222.72,290.83 223.61,294.62 224.86,298.43C226.12,302.24 228.06,307.19 229.19,309.43C230.32,311.67 232.79,315.41 234.69,317.75C236.59,320.10 239.00,322.00 240.07,322.00zM356.52,290.73C353.03,290.90 348.87,290.42 346.62,289.58C344.49,288.79 341.25,286.70 339.42,284.92C337.58,283.14 334.83,279.29 333.30,276.37C331.13,272.24 330.36,271.43 329.83,272.77C329.45,273.72 329.11,275.95 329.07,277.73C329.01,280.34 328.50,281.09 326.43,281.61C324.96,281.98 323.36,281.76 322.71,281.11C321.94,280.34 321.59,274.80 321.64,264.23C321.68,254.08 322.29,245.47 323.35,239.96C324.25,235.26 326.05,228.70 327.35,225.38C328.65,222.07 331.31,216.85 333.26,213.80C335.22,210.75 338.44,206.62 340.44,204.63C342.43,202.63 346.41,199.80 349.28,198.33C353.34,196.26 355.89,195.68 360.77,195.71C365.76,195.74 368.39,196.41 373.56,198.96C377.15,200.72 382.45,204.49 385.34,207.33C388.24,210.17 392.06,215.05 393.83,218.17C395.60,221.29 398.00,227.59 399.16,232.16C400.85,238.85 401.15,242.26 400.69,249.49C400.38,254.45 399.41,260.84 398.53,263.71C397.66,266.57 396.45,269.22 395.85,269.59C395.08,270.07 394.94,269.09 395.36,266.39C395.70,264.25 396.25,257.55 396.60,251.50C397.09,242.84 396.86,239.13 395.53,234.06C394.61,230.52 392.93,225.83 391.81,223.63C390.69,221.44 387.47,217.21 384.65,214.23C381.83,211.25 377.72,207.76 375.51,206.47C373.31,205.18 369.41,203.61 366.86,202.97C363.46,202.13 361.66,202.11 360.16,202.91C358.25,203.94 358.21,204.25 359.51,207.37C360.28,209.21 361.67,215.16 362.59,220.60C364.25,230.32 364.35,230.54 369.08,234.99C372.07,237.79 374.90,241.77 376.55,245.50C378.35,249.57 379.38,253.95 379.74,259.12C380.14,264.88 379.82,268.16 378.44,272.54C377.44,275.73 375.24,280.14 373.56,282.34C371.88,284.53 368.71,287.25 366.52,288.38C364.14,289.61 360.13,290.55 356.52,290.73zM347.99,273.00C349.13,273.00 350.34,272.29 350.67,271.42C351.00,270.55 350.31,268.12 349.13,266.02C347.95,263.92 346.54,259.83 345.99,256.93C345.44,254.03 344.77,251.44 344.52,251.18C344.26,250.93 343.39,251.27 342.58,251.94C341.77,252.61 340.60,254.67 340.00,256.51C339.18,258.98 339.19,260.98 340.01,264.05C340.63,266.35 342.21,269.30 343.52,270.61C344.84,271.93 346.84,273.00 347.99,273.00zM236.07,263.00C236.60,263.00 237.85,261.65 238.85,260.01C240.48,257.32 240.54,256.41 239.41,250.92C238.72,247.56 237.85,244.52 237.49,244.16C237.13,243.80 235.91,244.62 234.80,246.00C233.06,248.14 232.85,249.42 233.35,254.79C233.67,258.25 234.20,261.51 234.53,262.04C234.85,262.57 235.55,263.00 236.07,263.00zM362.42,260.80C364.55,260.59 366.10,259.50 367.72,257.10C369.22,254.87 370.00,252.22 370.00,249.39C370.00,247.01 369.25,243.50 368.33,241.57C367.38,239.57 365.55,237.69 364.05,237.17C362.37,236.58 360.22,236.66 358.00,237.38C356.06,238.01 354.00,239.60 353.29,241.00C352.60,242.38 352.03,244.62 352.04,246.00C352.04,247.38 352.96,250.52 354.08,252.98C355.20,255.45 356.85,258.28 357.75,259.28C358.81,260.45 360.47,260.99 362.42,260.80zM237.40,241.71C238.01,241.51 239.30,238.91 240.28,235.93C241.26,232.94 242.34,228.59 242.67,226.26C243.06,223.52 242.83,221.50 242.01,220.51C241.32,219.68 239.27,219.00 237.46,219.00C234.16,219.00 234.16,219.00 233.46,225.48C233.08,229.05 233.09,233.66 233.47,235.73C233.86,237.80 234.66,240.08 235.24,240.78C235.82,241.49 236.80,241.91 237.40,241.71zM413.30,104.97C414.43,104.99 415.65,103.70 416.55,101.53C417.35,99.62 418.00,96.47 418.00,94.53C418.00,92.15 417.54,91.00 416.58,91.00C415.80,91.00 413.55,92.88 411.58,95.18C409.61,97.48 408.00,100.02 408.00,100.82C408.00,101.62 408.79,102.88 409.75,103.61C410.71,104.34 412.31,104.95 413.30,104.97z" />

</svg>